<svg width="15" height="15" viewBox="0 0 15 15" fill="none" xmlns="http://www.w3.org/2000/svg">
<path fill-rule="evenodd" clip-rule="evenodd" d="M0.258444 14.7416C-0.0861482 14.3969 -0.0861482 13.8382 0.258444 13.4938L11.9874 1.7647H4.41175C3.92445 1.7647 3.5294 1.36965 3.5294 0.882349C3.5294 0.395045 3.92445 0 4.41175 0H14.1176C14.3516 0 14.5761 0.0929644 14.7416 0.25844C14.9069 0.423916 14.9999 0.648332 14.9999 0.882349V10.5882C14.9999 11.0755 14.6048 11.4706 14.1176 11.4706C13.6304 11.4706 13.2352 11.0755 13.2352 10.5882V3.01253L1.50626 14.7416C1.16169 15.0861 0.603019 15.0861 0.258444 14.7416Z" fill="black"/>
</svg>
